<?xml version="1.0" encoding="utf-8"?>
<!-- Designed by Vexels.com - 2016 All Rights Reserved - https://vexels.com/terms-and-conditions/  -->

<svg version="1.1" id="Layer_1" xmlns="http://www.w3.org/2000/svg" xmlns:xlink="http://www.w3.org/1999/xlink" x="0px" y="0px"
	 width="1200px" height="1200px" viewBox="0 0 1200 1200" enable-background="new 0 0 1200 1200" xml:space="preserve">
<g>
	
		<path fill-rule="evenodd" clip-rule="evenodd" fill="#302640" stroke="#373435" stroke-width="0.2117" stroke-miterlimit="22.9256" d="
		M541.128,874.646l-25.887-127.11c-36.723,59.779-241.232,134.373-188.315-63.562c3.783-14.145-61.434-87.039-77.477-49.029
		C143.623,885.738,324.589,965.238,541.128,874.646z"/>
	<g>
		<path fill-rule="evenodd" clip-rule="evenodd" fill="#4B4B4D" d="M252.706,444.845c25.027-14.356,51.072-25.198,76.144-33.373
			c14.309-4.656,31.042,2.639,38.108,19.386c34.713,82.31,69.433,164.614,104.152,246.925c7.066,16.746,0.538,33.275-12.208,41.425
			c-16.805,10.75-46.934,26.202-76.341,33.459c-14.644,3.605-30.838-2.732-37.904-19.478
			c-34.713-82.304-69.439-164.608-104.159-246.919C233.439,469.523,239.619,452.351,252.706,444.845z"/>
		<path fill-rule="evenodd" clip-rule="evenodd" d="M434.454,704.896c-11.906,5.116-59.956-7.486-65.978-30.891
			c-6.344-24.64,4.748-19.012,18.289-20.003c0.118-0.007,32.946,4.997,33.485,5.155
			C432.307,662.645,448.599,698.803,434.454,704.896z"/>
		<path fill-rule="evenodd" clip-rule="evenodd" fill="#BDBFC1" d="M269.209,443.846c22.873-13.291,51.518-25.999,74.555-33.373
			c13.141-4.203,28.711,3.074,35.533,19.222c33.479,79.375,66.963,158.744,100.442,238.126c6.816,16.154,1.064,31.85-10.573,39.428
			c-15.341,9.982-47.676,27.037-74.732,33.446c-13.469,3.198-28.533-3.146-35.35-19.3c-33.485-79.369-66.97-158.744-100.455-238.119
			C251.82,467.12,257.238,450.801,269.209,443.846z"/>
		<polygon fill-rule="evenodd" clip-rule="evenodd" fill="#606062" points="266.806,476.222 373.92,429.287 471.623,663.256 
			364.509,710.196 		"/>
		<polygon fill-rule="evenodd" clip-rule="evenodd" fill="#727376" points="328.397,431.678 329.284,433.785 300.015,446.611 
			299.122,444.496 296.318,445.731 295.51,443.827 298.104,442.684 297.415,441.042 326.788,428.171 327.478,429.813 
			330.249,428.597 331.057,430.515 		"/>
		<path fill-rule="evenodd" clip-rule="evenodd" fill="#373435" d="M340.52,429.438c1.064-0.466,2.384,0.256,2.955,1.602
			c0.565,1.353,0.164,2.824-0.893,3.29c-1.057,0.459-2.377-0.263-2.949-1.609S339.47,429.898,340.52,429.438z"/>
		<path fill-rule="evenodd" clip-rule="evenodd" fill="#373435" d="M346.214,427.008c1.057-0.459,2.377,0.256,2.949,1.609
			c0.572,1.346,0.171,2.817-0.886,3.284c-1.064,0.466-2.384-0.25-2.949-1.609C344.762,428.952,345.157,427.481,346.214,427.008z"/>
		<path fill-rule="evenodd" clip-rule="evenodd" fill="#373435" d="M352.334,419.299c1.937-0.847,4.354,0.467,5.405,2.942
			c1.044,2.476,0.309,5.169-1.629,6.022c-1.944,0.854-4.367-0.466-5.411-2.942C349.655,422.845,350.384,420.153,352.334,419.299z"/>
		<path fill-rule="evenodd" clip-rule="evenodd" fill="#606062" d="M411.575,706.63l13.594-5.963l3.993,9.601l-10.809,4.879
			c-2.345,1.057-4.998-0.683-5.819-2.634l-1.549-3.69C410.603,707.924,410.866,706.933,411.575,706.63L411.575,706.63z
			 M428.544,699.19l3.98,9.568l10.691-4.834c1.977-0.893,1.622-4.288,1.169-5.359l-1.55-3.69c-0.381-0.9-1.274-1.386-1.983-1.077
			L428.544,699.19z"/>
		<path fill-rule="evenodd" clip-rule="evenodd" fill="#606062" d="M390.935,713.525c2.502-0.637,5.3,1.372,6.252,4.479
			c0.952,3.106-0.302,6.146-2.797,6.783c-2.509,0.637-5.306-1.366-6.252-4.472C387.185,717.203,388.439,714.163,390.935,713.525z"/>
		<polygon fill-rule="evenodd" clip-rule="evenodd" fill="#FEFEFE" points="347.776,446.296 351.973,444.319 358.77,459.672 
			354.574,461.649 		"/>
		<polygon fill-rule="evenodd" clip-rule="evenodd" fill="#FEFEFE" points="354.508,443.124 358.698,441.141 365.488,456.501 
			361.298,458.477 		"/>
		<polygon fill-rule="evenodd" clip-rule="evenodd" fill="#FEFEFE" points="361.291,440.09 365.488,438.113 372.278,453.467 
			368.075,455.443 		"/>
		<polygon fill-rule="evenodd" clip-rule="evenodd" fill="#FEFEFE" points="369.5,440.464 373.69,438.487 378.931,450.328 
			374.734,452.304 		"/>
		<path fill-rule="evenodd" clip-rule="evenodd" fill="#606062" d="M462.626,680.671c2.489-0.637,5.294,1.366,6.246,4.472
			c0.952,3.113-0.303,6.154-2.804,6.791c-2.496,0.637-5.3-1.366-6.252-4.479C458.87,684.349,460.118,681.308,462.626,680.671z"/>
		<path fill-rule="evenodd" clip-rule="evenodd" fill="#373435" d="M305.754,528.993l79.592-33.215
			c3.94-1.642,8.478,0.249,10.1,4.203l42.088,102.924c1.609,3.953-0.282,8.524-4.222,10.172l-79.592,33.209
			c-3.94,1.642-8.484-0.243-10.093-4.196l-42.095-102.93C299.923,535.212,301.815,530.629,305.754,528.993z"/>
		<path fill-rule="evenodd" clip-rule="evenodd" fill="#00A859" d="M355.033,665.909l45.897-19.156l6.068,14.848
			c2.029,4.932,2.121,9.62,0.23,10.415l-39.015,16.28c-1.891,0.788-5.089-2.6-7.105-7.539L355.033,665.909z"/>
		<path fill-rule="evenodd" clip-rule="evenodd" fill="#ED3237" d="M404.18,645.4l45.903-19.156l6.074,14.855
			c2.016,4.926,2.115,9.621,0.223,10.409l-39.014,16.28c-1.885,0.788-5.096-2.607-7.112-7.539L404.18,645.4z"/>
		<path fill-rule="evenodd" clip-rule="evenodd" fill="#373435" d="M292.982,500.532l79.821-33.308
			c3.868-1.615,8.695,1.09,10.697,6.002l4.912,12.011l-93.907,39.179l-4.912-11.998
			C287.577,507.494,289.101,502.148,292.982,500.532z"/>
		<polygon fill-rule="evenodd" clip-rule="evenodd" fill="#FEFEFE" points="366.801,672.39 396.602,659.952 398.277,664.037 
			368.476,676.468 		"/>
		<polygon fill-rule="evenodd" clip-rule="evenodd" fill="#FEFEFE" points="417.676,651.638 447.049,639.384 448.665,643.332 
			419.291,655.585 		"/>
		<polygon fill-rule="evenodd" clip-rule="evenodd" fill="#727376" points="333.454,529.453 363.262,517.016 364.923,521.1 
			335.122,533.538 		"/>
		<polygon fill-rule="evenodd" clip-rule="evenodd" fill="#727376" points="322.316,551.315 387.921,523.937 389.595,528.028 
			323.985,555.4 		"/>
		<polygon fill-rule="evenodd" clip-rule="evenodd" fill="#727376" points="349.95,620.124 370.531,611.534 372.199,615.625 
			351.618,624.208 		"/>
		<polygon fill-rule="evenodd" clip-rule="evenodd" fill="#727376" points="379.331,608.5 421.353,590.966 423.028,595.051 
			381.005,612.585 		"/>
		<polygon fill-rule="evenodd" clip-rule="evenodd" fill="#727376" points="329.888,569.834 395.499,542.456 408.974,575.409 
			343.364,602.787 		"/>
	</g>
	<path fill-rule="evenodd" clip-rule="evenodd" fill="#EDD1AC" d="M784.238,1117.822c-8.636-1.169-44.511-1.878-53.448,8.583
		c-4.84,5.647-8.833,14.04-11.919,23.595h67.732C787.305,1133.523,786.878,1118.176,784.238,1117.822z"/>
	
		<path fill-rule="evenodd" clip-rule="evenodd" fill="#251F2F" stroke="#373435" stroke-width="0.2117" stroke-miterlimit="22.9256" d="
		M752.939,840.748l10.678-109.918c71.192,16.871,124.904,63.135,152.925,107.344c102.064,161.055,68.316,258.811,8.465,311.826
		H780.271c-0.237-27.023-1.806-52.188,12.989-52.785C944.642,1091.107,893.072,857.52,752.939,840.748z"/>
	<rect x="551.425" y="1051.134" fill-rule="evenodd" clip-rule="evenodd" fill="#1D0C1D" width="141.978" height="98.866"/>
	<path fill-rule="evenodd" clip-rule="evenodd" fill="#1D0C1D" d="M728.366,1091.921c2.909,10.639,4.873,30.885,6.094,58.079
		H619.978C623.058,1038.295,664.036,1103.506,728.366,1091.921z"/>
	<g>
		<defs>
			<path id="SVGID_1_" d="M505.161,1105.83c-1.182,14.138-2.337,28.895-3.467,44.17h98.997
				C599.686,1062.042,565.393,1119.785,505.161,1105.83z"/>
		</defs>
		<use xlink:href="#SVGID_1_"  overflow="visible" fill-rule="evenodd" clip-rule="evenodd" fill="#1D0C1D"/>
		<clipPath id="SVGID_2_">
			<use xlink:href="#SVGID_1_"  overflow="visible"/>
		</clipPath>
	</g>
	<path fill-rule="evenodd" clip-rule="evenodd" fill="#302640" d="M700.811,677.04c23.838,27.673,82.336,61.585,91.799,83.558
		c8.406,8.747-25.664,218.845-32.946,389.402H637.591c-11.184-35.18-22.518-70.996-23.923-71.127
		c-2.068-0.204-12.228,34.726-23.917,71.127H472.786c2.358-102.255-13.81-281.041-6.127-351.622
		c3.769-34.654,64.5-59.536,84.024-82.882C556.331,708.738,690.218,677.164,700.811,677.04z"/>
	<polygon fill-rule="evenodd" clip-rule="evenodd" fill="#FEFEFE" points="558.866,731.742 550.276,768.951 543.216,809.43 
		609.241,985.924 627.72,976.717 684.288,842.396 697.022,741.665 659.616,727.166 624.122,753.499 	"/>
	<path fill-rule="evenodd" clip-rule="evenodd" fill="#35475D" d="M582.31,905.071l23.326-126.434
		c-12.982-27.319-35.481-52.438-15.452-50.868c15.814,1.235,27.345,0.302,48.031,5.169c13.022,3.066-12.143,28.796-23.352,48.904
		l34.28,125.62l-33.209,75.664L582.31,905.071z"/>
	<path fill-rule="evenodd" clip-rule="evenodd" fill="#B39268" d="M511.754,676.763c14.408,37.872,60.955,60.962,107.475,58.236
		c40.335-2.364,82.041-25.539,85.817-58.236C705.953,668.87,550.611,690.207,511.754,676.763z"/>
	<polygon fill-rule="evenodd" clip-rule="evenodd" fill="#24314E" points="626.768,746.15 629.848,754.819 684.012,720.835 
		666.656,712.37 	"/>
	<polygon fill-rule="evenodd" clip-rule="evenodd" fill="#35475D" points="602.635,760.867 599.936,744.023 570.023,718.319 
		558.819,727.192 	"/>
	<path fill-rule="evenodd" clip-rule="evenodd" fill="#E6E7E8" d="M583.511,729.306c-12.438-12.286-19.543,47.985-19.241,65.9
		c0.138,8.524-3.54,20.364-10.54,5.267c-28.783-62.058-23.747-87.183-22.623-97.211c5.366-18.368,54.506,1.11,53.495,27.01
		C584.01,730.166,584.404,730.193,583.511,729.306z"/>
	<path fill-rule="evenodd" clip-rule="evenodd" fill="#E6E7E8" d="M641.616,734.159c12.451-10.356,22.939,27.621,23.963,43.388
		c0.479,7.507,5.333,18.072,11.735,5.037c26.314-53.594,28.14-80.295,26.176-89.173c-7.145-16.378-66.011,18.703-62.977,41.563
		C641.143,734.895,640.716,734.908,641.616,734.159z"/>
	<path fill-rule="evenodd" clip-rule="evenodd" fill="#666666" d="M614.967,1023.973c4.926,0,8.911,3.992,8.911,8.918
		c0,4.919-3.986,8.911-8.911,8.911c-4.925,0-8.917-3.992-8.917-8.911C606.049,1027.966,610.042,1023.973,614.967,1023.973z"/>
	<path fill-rule="evenodd" clip-rule="evenodd" fill="#4D2F1B" d="M779.477,313.59l18.571-94.545
		c42.002,43.533,44.636,95.189,19.045,151.146C817.23,347.023,798.573,327.203,779.477,313.59z"/>
	<path fill-rule="evenodd" clip-rule="evenodd" fill="#3D200E" d="M405.428,306.236l15.413-95.117
		c-54.506,26.248-71.396,136.153-40.466,209.822c4.912-13.515,50.349-1.11,54.854-29.88
		C437.987,373.468,396.845,308.56,405.428,306.236z"/>
	<path fill-rule="evenodd" clip-rule="evenodd" fill="#69452D" d="M789.649,348.113l-29.144-77.484
		c35.967,10.842,72.368,56.641,68.77,118.029C822.188,366.934,809.527,354.102,789.649,348.113z"/>
	<path fill-rule="evenodd" clip-rule="evenodd" fill="#69452D" d="M704.915,294.638l-57.98-129.041
		c45.608,8.767,68.75,14.973,78.232,16.023c126.966,14.021,138.97,318.262,47.04,372.216L704.915,294.638z"/>
	<path fill-rule="evenodd" clip-rule="evenodd" fill="#EDD1AC" d="M437.127,398.56c-3.309-10.927-39.356-31.206-58.052-10.008
		c-25.263,59.346,40.775,88.555,47.48,69.426l0.644-1.826c5.877-16.733,10.868-20.594,13.081-38.272
		C441.704,406.566,440.568,409.895,437.127,398.56z"/>
	<path fill-rule="evenodd" clip-rule="evenodd" fill="#EDD1AC" d="M822.201,402.848c0.085,39.613-37.294,54.749-46.796,42.167
		l-4.275-5.661c-3.783-15.669-4.295-18.966-4.978-35.278c-1.018-24.371,24.383-38.194,41.799-31.666
		C820.875,377.25,822.162,390.476,822.201,402.848z"/>
	<path fill-rule="evenodd" clip-rule="evenodd" fill="#BA9361" d="M797.95,401.555c8.261,27.095-15.59,38.318-20.995,31.187
		l-2.082-2.745c-1.825-7.605-2.075-9.214-2.403-17.127C771.852,398.193,790.969,391.389,797.95,401.555z"/>
	<path fill-rule="evenodd" clip-rule="evenodd" fill="#69452D" d="M503.493,241.977l47.696-89.699
		c-128.772-25-152.774,97.979-156.15,184.624c-1.287,33.045,3.388,131.989,25.676,179.817L503.493,241.977z"/>
	<path fill-rule="evenodd" clip-rule="evenodd" fill="#EDD1AC" d="M757.733,663.643c-46.816,19.419-87.36,36.801-146.72,38.391
		c-80.833,2.187-141.78-18.532-173.992-44.55c-34.64-36.421-26.097-102.077-22.86-173.71
		c5.549-122.802,29.551-259.828,39.835-272.845c24.502-61.519,205.599-53.895,286.124-5.687
		c16.056,9.614,17.087,39.901,22.058,77.07c5.884,43.992,7.092,117.096,17.672,182.451
		C794.338,554.25,812.561,635.378,757.733,663.643z"/>
	<path fill-rule="evenodd" clip-rule="evenodd" fill="#E0BA89" d="M757.733,663.643c-46.816,19.419-87.36,36.801-146.72,38.391
		c-59.293,1.602-107.889-9.115-142.28-25.211c80.827,10.744,189.064,6.468,248.554-25.151
		c46.605-24.777,67.752-65.355,74.404-110.91C798.724,597.579,796.36,643.726,757.733,663.643L757.733,663.643z M420.401,399.723
		c9.483-94.479,25.644-178.727,33.597-188.794c2.719-6.829,7.368-12.799,13.587-17.954l209.356-12.872
		c23.989,6.331,45.903,14.802,63.181,25.139c1.904,1.143,3.586,2.574,5.103,4.269l12.161,35.514
		c1.681,11.065,2.975,23.714,4.794,37.287c1.327,9.93,2.417,21.356,3.428,33.833c-5.891-24.075-12.911-46.067-21.08-59.812
		c-33.944-38.568-50.046-3.77-85.83,9.312c-27.477,11.827-127.793,6.508-146.148,5.845
		C459.337,269.578,432.812,337.796,420.401,399.723z"/>
	<path fill-rule="evenodd" clip-rule="evenodd" fill="#FFFFFF" d="M537.346,407.104c0.374,32.04-23.588,43.756-55.774,43.867
		c-32.178,0.105-51.216-15.544-49.508-43C433.436,357.911,529.452,347.364,537.346,407.104z"/>
	<path fill-rule="evenodd" clip-rule="evenodd" fill="#69452D" d="M702.4,142.534c-33.919-47.952-113.569-61.467-188.079-45.03
		c-44.333,9.785-106.148,109.301-80.938,159.564c46.606-39.493,151.816-3.598,198.001-9.47
		C661.179,243.803,740.686,196.646,702.4,142.534z"/>
	<path fill-rule="evenodd" clip-rule="evenodd" fill="#69452D" d="M621.58,132.401l103.069,39.894
		c-21.408-62.492-87.367-136.107-163.176-120.064C590.131,61.464,609.747,97.865,621.58,132.401z"/>
	<path fill-rule="evenodd" clip-rule="evenodd" fill="#69452D" d="M563.357,145.968l107.193,2.489
		C630.446,98.469,554.321,47.628,482.807,83.49C511.997,82.485,541.2,118.347,563.357,145.968z"/>
	<path fill-rule="evenodd" clip-rule="evenodd" fill="#69452D" d="M424.354,164.343l79.907,4.59
		c-18.945,57.166-95.313,144.217-189.562,121.423c-6.311-7.427,10.061-11.459,19.57-17.37
		C362.408,255.486,414.924,198.432,424.354,164.343z"/>
	<path fill-rule="evenodd" clip-rule="evenodd" fill="#69452D" d="M483.936,133.195l37.268-34.516
		c-30.129-3.762-73.826,8.629-82.488,43.165C448.31,131.875,467.289,131.114,483.936,133.195z"/>
	<path fill-rule="evenodd" clip-rule="evenodd" fill="#3D200E" d="M461.353,214.488c27.936-66.622,119.9-66.313,167.537-16.194
		C634.924,205.235,546.119,166.924,461.353,214.488z"/>
	<path fill-rule="evenodd" clip-rule="evenodd" fill="#3D200E" d="M612.413,103.257c39.546-1.754,60.895,43.881,47.21,79.204
		C657.6,187.077,655.807,134.121,612.413,103.257z"/>
	<path fill-rule="evenodd" clip-rule="evenodd" fill="#3D200E" d="M518.689,115.34c34.509-29.643,86.204-3.547,98.905,38.102
		C619.039,159.05,579.834,112.444,518.689,115.34z"/>
	<path fill-rule="evenodd" clip-rule="evenodd" stroke="#000000" stroke-width="0.2117" stroke-miterlimit="22.9256" d="
		M465.076,401.784c14.579-0.046,26.452,11.164,26.491,25.04c0.046,13.876-11.736,25.171-26.321,25.217
		c-14.586,0.052-26.445-11.157-26.498-25.034C438.703,413.126,450.491,401.838,465.076,401.784z"/>
	<path fill-rule="evenodd" clip-rule="evenodd" fill="#FFFFFF" d="M475.307,407.386c3.08-0.013,5.588,2.476,5.595,5.563
		c0.007,3.073-2.475,5.582-5.562,5.595c-3.074,0.007-5.582-2.482-5.589-5.562C469.739,409.902,472.228,407.393,475.307,407.386z"/>
	<path fill-rule="evenodd" clip-rule="evenodd" fill="#FFFFFF" d="M655.63,394.634c-0.157,32.047,23.897,43.598,56.082,43.487
		c32.171-0.112,51.104-15.899,49.206-43.336C759.191,344.731,663.116,334.847,655.63,394.634z"/>
	<path fill-rule="evenodd" clip-rule="evenodd" fill="#69452D" d="M748.447,312.875c5.917,9.87,2.772,20.633-0.65,24.042
		c-45.043-21.402-90.093-16.614-110.929-17.711c-2.148-0.42-5.359-2.483-0.138-10.409
		C646.699,293.324,729.502,303.871,748.447,312.875z"/>
	<path fill-rule="evenodd" clip-rule="evenodd" stroke="#000000" stroke-width="0.2117" stroke-miterlimit="22.9256" d="
		M691.138,390.043c-14.526,0.053-26.262,11.302-26.222,25.119c0.052,13.824,11.873,24.987,26.399,24.935
		c14.526-0.052,26.261-11.289,26.215-25.118C717.478,401.161,705.663,389.997,691.138,390.043z"/>
	<path fill-rule="evenodd" clip-rule="evenodd" fill="#FFFFFF" d="M681.425,395.691c-3.317,0.013-5.996,2.712-5.983,6.029
		c0.013,3.316,2.705,5.996,6.022,5.982c3.31-0.013,5.989-2.712,5.976-6.022C687.434,398.37,684.735,395.684,681.425,395.691z"/>
	<path fill-rule="evenodd" clip-rule="evenodd" fill="#69452D" d="M695.419,162.944l2.844-1.498
		c27.994-14.651,79.821-4.262,111.467,21.862c15.386,12.707,28.501,52.654,19.465,76.59c-2.016,5.352-59.175,38.463-63.634,41.727
		c-13.863-92.404-50.671-115.277-68.264-93.822C690.304,216.32,667.365,177.628,695.419,162.944z"/>
	<path fill-rule="evenodd" clip-rule="evenodd" fill="#69452D" d="M749.833,173.746l-59.123-6.147
		c25.552-24.679,75.165-43.762,107.534-17.52C782.254,147.485,763.952,160.107,749.833,173.746z"/>
	<path fill-rule="evenodd" clip-rule="evenodd" fill="#69452D" d="M774.381,194.505l-51.932-25.073
		c31.45-14.105,80.347-19.793,105.801,14.888C814.518,176.688,791.75,186.709,774.381,194.505z"/>
	<path fill-rule="evenodd" clip-rule="evenodd" fill="#69452D" d="M829.957,257.331l-32.815-37.537
		c-4.532,29.459,6.39,72.677,40.032,82.153C827.658,292.254,827.448,273.604,829.957,257.331z"/>
	<path fill-rule="evenodd" clip-rule="evenodd" fill="#69452D" d="M815.536,207.842l-9.391-25.65
		c15.354,5.569,33.236,22.209,28.921,40.866C832.912,215.939,824.007,210.922,815.536,207.842z"/>
	<path fill-rule="evenodd" clip-rule="evenodd" fill="#3D200E" d="M806.434,252.294c2.942-38.739-41.162-61.119-76.249-48.793
		C725.594,205.347,777.5,208.755,806.434,252.294z"/>
	<path fill-rule="evenodd" clip-rule="evenodd" fill="#3D200E" d="M761.352,162.038c-18.499-10.527-39.901,6.094-42.002,26.36
		C719.192,191.097,733.022,166.181,761.352,162.038z"/>
	<path fill-rule="evenodd" clip-rule="evenodd" fill="#3D200E" d="M803.269,190.774c-9.26-22.636-40.4-22.813-56.686-5.982
		C744.521,187.124,774.702,174.416,803.269,190.774z"/>
	<path fill-rule="evenodd" clip-rule="evenodd" fill="#B39268" d="M548.431,333.863c0-3.284,2.666-5.957,5.956-5.957
		c3.29,0,5.95,2.673,5.95,5.957c-0.013,17.093,0.342,69.347,2.194,110.916c1.064,23.72,2.581,43.717,4.728,50.933
		c3.599,6.6,9.621,9.759,16.542,10.593c9.883,1.189,21.566-1.997,31.462-6.862c2.949-1.444,6.521-0.223,7.953,2.732
		c1.451,2.955,0.223,6.521-2.726,7.959c-11.716,5.772-25.802,9.516-38.095,8.032c-10.75-1.3-20.154-6.39-25.828-17.16
		c-0.217-0.354-0.394-0.748-0.519-1.156c-2.581-7.932-4.301-29.361-5.424-54.552C548.772,403.716,548.418,351.101,548.431,333.863z"
		/>
	<path fill-rule="evenodd" clip-rule="evenodd" fill="#B39268" d="M581.37,596.253c0.191-0.999,12.353,3.382,23.911,3.054
		c10.816-0.309,21.087-5.378,21.126-4.722c-2.311,9.897-12.096,15.275-21.073,15.419
		C589.402,610.253,581.699,601.335,581.37,596.253z"/>
	<path fill-rule="evenodd" clip-rule="evenodd" fill="#B39268" d="M705.237,536.053c-5.064-14.927-12.884-20.626-27.818-22.157
		C693.534,499.895,716.341,517.902,705.237,536.053z"/>
	<path fill-rule="evenodd" clip-rule="evenodd" fill="#B39268" d="M543.879,529.368c-15.15,4.354-21.211,11.899-23.437,26.741
		C507.216,539.356,526.274,517.422,543.879,529.368z"/>
	<path fill-rule="evenodd" clip-rule="evenodd" fill="#B39268" d="M566.313,658.455c0.335,1.169,21.841-3.953,42.271-3.566
		c19.11,0.361,37.255,6.285,37.327,5.516c-4.091-11.551-21.369-17.842-37.241-18.006C580.51,642.11,566.904,652.519,566.313,658.455
		z"/>
	<path fill-rule="evenodd" clip-rule="evenodd" fill="#B39268" d="M602.549,662.625c4.294,0,7.775,2.988,7.775,6.672
		c0,3.684-3.481,6.679-7.775,6.679c-4.302,0-7.788-2.995-7.788-6.679C594.761,665.613,598.248,662.625,602.549,662.625z"/>
	<path fill-rule="evenodd" clip-rule="evenodd" fill="#69452D" d="M454.891,163.6l36.663-63.575
		c-35.337,6.298-68.855,32.979-106.057,74.41c-5.818,6.469-33.63,26.971-33.735,29.276c-0.551,13.252,28.448,4.544,37.531,0.341
		C404.765,196.888,438.638,166.497,454.891,163.6z"/>
	<path fill-rule="evenodd" clip-rule="evenodd" fill="#EDD1AC" d="M426.41,473.004c-8.051-37.905,94.361-61.907,112.715-21.901
		c1.025,16.647-37.011,17.212-63.837,22.315C457.216,476.852,448.081,485.678,426.41,473.004z"/>
	<path fill-rule="evenodd" clip-rule="evenodd" fill="#EDD1AC" d="M651.677,460.592c-8.051-37.911,94.367-61.907,112.715-21.901
		c1.032,16.647-37.005,17.212-63.83,22.308C682.489,464.433,673.348,473.266,651.677,460.592z"/>
	<path fill-rule="evenodd" clip-rule="evenodd" fill="#69452D" d="M793.241,351.449c0.184,0.729-5.457,14.618-8.347,47.663
		c-0.23,2.633,2.522,47.4,1.432,63.489c-0.394,5.832-5.07,0.138-5.097,0.276c-5.739,1.99-16.608-114.219-15.583-152.177
		c0.118-4.189,19.569,37.353,24.409,37.892L793.241,351.449z"/>
	<path fill-rule="evenodd" clip-rule="evenodd" fill="#615E6E" d="M702.538,686.194c0.289,0.23,28.757,38.679,38.239,48.005
		c17.39,17.1-13.081,13.022-9.903,20.134c0.656,1.465,5.739,2.325,9.522,4.301c15.491,8.091-8.642,46.691-16.365,62.446
		c-9.22,18.781-82.022,159.525-108.303,163.879c-0.394-2.062,30.241-72.007,48.412-123.545
		C677.294,824.081,697.232,731.73,702.538,686.194z"/>
	<path fill-rule="evenodd" clip-rule="evenodd" fill="#615E6E" d="M532.217,694.974c-0.289,0.217-27.916,37.537-37.123,46.593
		c-16.877,16.594,12.7,12.635,9.607,19.536c-0.631,1.419-5.563,2.259-9.234,4.183c-15.031,7.848,8.38,45.319,15.885,60.6
		c8.951,18.23,78.082,175.456,105.124,159.072c0.368-2.003-29.354-69.893-46.993-119.919
		C556.718,828.809,537.372,739.163,532.217,694.974z"/>
	<path fill-rule="evenodd" clip-rule="evenodd" fill="#FEFEFE" d="M780.704,1112.785c-12.254,1.294-8.583-1.563-8.583,19.918
		c0,1.662-0.132,8.524-0.23,17.298h11.459c0.361-17.882,0.184-36.598-1.754-37.091L780.704,1112.785z"/>
	<path fill-rule="evenodd" clip-rule="evenodd" fill="#EDD1AC" d="M265.538,612.394c1.55-7.973,7.552-86.737,36.598-76.518
		c28.455,10.001-7.039,42.423,2.213,40.833c64.159-11.026,15.348,31.187,16.93,31.036c16.175-1.478,30.543,16.102,5.103,32.336
		c-5.424,3.46,36.414,2.305,7.211,29.288c-6.883,6.351-16.877-7.762-8.977,8.918c22.177,46.744-23.011,63.148-51.754-20.896
		C271.055,652.118,264.928,615.533,265.538,612.394z"/>
	<path fill-rule="evenodd" clip-rule="evenodd" fill="#EDD1AC" d="M424.531,408.805c-8.057-37.911,98.485-63.083,116.826-23.077
		C530.03,385.255,445.46,394.916,424.531,408.805z"/>
	<path fill-rule="evenodd" clip-rule="evenodd" fill="#EDD1AC" d="M651.677,397.03c-9.811-50.841,86.126-77.786,113.3-16.601
		C747.765,379.371,673.788,384.908,651.677,397.03z"/>
	<path fill-rule="evenodd" clip-rule="evenodd" fill="#BA9361" d="M445.033,394.784c17.744-9.568,42.265-16.68,70.011-14.217
		c-5.753-7.303-21.244-14.054-34.608-12.038C453.899,373.389,448.849,384.973,445.033,394.784z"/>
	<path fill-rule="evenodd" clip-rule="evenodd" fill="#BA9361" d="M739.937,368.654c-18.355-3.514-41.267-2.771-65.111,7.145
		c3.054-8.064,16.916-16.654,26.925-17.718C726.573,354.982,733.829,361.037,739.937,368.654z"/>
	<path fill-rule="evenodd" clip-rule="evenodd" fill="#69452D" d="M434.848,356.952c-3.618,9.141,0.532,17.777,3.881,20.174
		c35.002-24.297,73.649-26.517,91.058-30.339c1.754-0.644,4.183-2.83-1.333-8.786C517.901,326.337,449.565,346.734,434.848,356.952z
		"/>
	<path fill-rule="evenodd" clip-rule="evenodd" d="M600.448,557.934l-38.299-1.884c8.163,7.401,1.806,27.436,4.288,27.568
		c49.759,2.693,110.726-6.955,130.591-59.431l0.105-1.412l-44.577,22.597L600.448,557.934z"/>
	<path fill-rule="evenodd" clip-rule="evenodd" fill="#B39268" d="M692.917,515.755c1.977-1.892,5.129-1.812,7.021,0.177
		c1.898,1.983,1.812,5.135-0.178,7.027c-18.453,17.645-53.619,31.016-88.956,35.212c-32.113,3.816-64.672,0.098-85.496-14.795
		c-2.226-1.589-2.751-4.689-1.162-6.922c1.589-2.233,4.688-2.758,6.922-1.169c18.65,13.331,48.648,16.555,78.573,13.003
		C643.028,544.321,675.962,531.962,692.917,515.755z"/>
</g>
</svg>
